# xmcd CD database file
#
# Track frame offsets:
#	150
#	18389
#	40409
#	62143
#	83551
#
# Disc length: 1550 seconds
#
# Revision: 0
# Processed by: cddbd v1.5.2PL0 Copyright (c) Steve Scherf et al.
# Submitted via: CDex 1.51
#
DISCID=36060c05
DTITLE=GO - Cactus
DYEAR=2007
DGENRE=Blues
TTITLE0="GO"
TTITLE1=Distortion of a Phase
TTITLE2=King's Rock
TTITLE3=Orange Juice
TTITLE4=Second Present
EXTD=YEAR: 2007
EXTT0=
EXTT1=
EXTT2=
EXTT3=
EXTT4=
PLAYORDER=
